<svg xmlns="http://www.w3.org/2000/svg" aria-hidden="true" style="position:absolute;width:0;height:0;overflow:hidden">
  <defs>
    <symbol id="icon-radio" viewBox="0 0 32 32">
      <path d="M16 26c-5.5 0-10-4.5-10-10S10.5 6 16 6s10 4.5 10 10-4.5 10-10 10zm0-19c-5 0-9 4-9 9s4 9 9 9 9-4 9-9-4-9-9-9z"/>
      <path d="M16 10c3.3 0 6 2.7 6 6s-2.7 6-6 6-6-2.7-6-6 2.7-6 6-6z"/>
    </symbol>
    <symbol id="icon-caution" viewBox="0 0 32 32">
      <path d="M15.876 4.032c.039-.021.083-.033.128-.032s.087.011.126.032a.289.289 0 0 1 .108.114L29.952 27.48a.35.35 0 0 1 .004.366.32.32 0 0 1-.108.12.237.237 0 0 1-.132.034H2.292a.237.237 0 0 1-.132-.034.32.32 0 0 1-.108-.12.36.36 0 0 1 .004-.366L15.768 4.146a.289.289 0 0 1 .108-.114zm2.088-.9a2.265 2.265 0 0 0-1.96-1.135 2.26 2.26 0 0 0-1.96 1.135L.33 26.466C-.584 28.022.512 30 2.29 30h27.426c1.778 0 2.876-1.98 1.96-3.534L17.964 3.132z"/>
      <path d="M14.004 24a2.004 2.004 0 0 1 1.235-1.848 1.992 1.992 0 0 1 1.53 0A2 2 0 1 1 14.004 24zm.196-12.01a1.812 1.812 0 0 1 1.799-2.001 1.803 1.803 0 0 1 1.721 1.252c.078.241.105.496.078.749l-.7 7.014a1.107 1.107 0 0 1-1.1 1.01 1.105 1.105 0 0 1-1.1-1.01l-.7-7.014z"/>
    </symbol>
    <symbol id="icon-info" viewBox="0 0 32 32">
      <path d="M16 32a4.003 4.003 0 0 0 4-4h-8a4.003 4.003 0 0 0 4 4zm0-28.164-1.594.322A8.005 8.005 0 0 0 8 12c0 1.256-.268 4.394-.918 7.484-.32 1.534-.752 3.132-1.326 4.516h20.488c-.574-1.384-1.004-2.98-1.326-4.516C24.268 16.394 24 13.256 24 12a7.998 7.998 0 0 0-6.406-7.84L16 3.836zM28.44 24c.446.894.962 1.602 1.56 2H2c.598-.398 1.114-1.106 1.56-2C5.36 20.4 6 13.76 6 12c0-4.84 3.44-8.88 8.01-9.802a2 2 0 1 1 3.98 0A10.007 10.007 0 0 1 26 12c0 1.76.64 8.4 2.44 12z"/>
    </symbol>
    <symbol id="icon-ok" viewBox="0 0 32 32">
      <path d="M5 16a10.998 10.998 0 0 1 16.499-9.528 1.003 1.003 0 0 0 1.36-.369 1.003 1.003 0 0 0-.36-1.363A12.995 12.995 0 0 0 6.807 6.806 13.005 13.005 0 0 0 4.74 22.498a13.001 13.001 0 0 0 21.571 1.416 13 13 0 0 0 2.687-7.913 1 1 0 1 0-2 0 11 11 0 0 1-22 0z"/>
      <path d="M30.708 6.708A.991.991 0 0 0 31.001 6a1.006 1.006 0 0 0-.618-.925 1.006 1.006 0 0 0-1.091.217L16 18.586l-5.292-5.294a.991.991 0 0 0-.708-.293 1.006 1.006 0 0 0-.925.618 1.01 1.01 0 0 0 0 .766c.05.121.124.232.217.325l6 6a.991.991 0 0 0 .708.293 1.006 1.006 0 0 0 .708-.293l14-14z"/>
    </symbol>
    <symbol id="icon-error" viewBox="0 0 32 32">
      <path d="M9.08.292A.998.998 0 0 1 9.786 0h12.428c.265 0 .519.105.706.292l8.788 8.788a.998.998 0 0 1 .292.706v12.428a.998.998 0 0 1-.292.706l-8.788 8.788a.998.998 0 0 1-.706.292H9.786a.998.998 0 0 1-.706-.292L.292 22.92A.998.998 0 0 1 0 22.214V9.786c0-.265.105-.519.292-.706L9.08.292zM10.2 2 2 10.2v11.6l8.2 8.2h11.6l8.2-8.2V10.2L21.8 2H10.2z"/>
      <path d="M9.292 9.292A.991.991 0 0 1 10 8.999a1.002 1.002 0 0 1 .708.293L16 14.586l5.292-5.294A.991.991 0 0 1 22 8.999a1.006 1.006 0 0 1 .925.618 1.01 1.01 0 0 1 0 .766c-.05.121-.124.232-.217.325L17.414 16l5.294 5.292a.991.991 0 0 1 .293.708 1.006 1.006 0 0 1-.618.925 1.006 1.006 0 0 1-1.091-.217L16 17.414l-5.292 5.294a.991.991 0 0 1-.708.293 1.006 1.006 0 0 1-.925-.618 1.006 1.006 0 0 1 .217-1.091L14.586 16l-5.294-5.292A.991.991 0 0 1 8.999 10a1.002 1.002 0 0 1 .293-.708z"/>
    </symbol>
  </defs>
</svg>
