<!-- Generated by IcoMoon.io -->
<svg version="1.1" xmlns="http://www.w3.org/2000/svg" width="32" height="32" viewBox="0 0 32 32">
<path d="M15.876 4.032c0.039-0.021 0.083-0.033 0.128-0.032s0.087 0.011 0.126 0.032c0.046 0.027 0.083 0.067 0.108 0.114l13.714 23.334c0.072 0.12 0.070 0.248 0.004 0.366-0.025 0.048-0.062 0.090-0.108 0.12-0.040 0.024-0.086 0.036-0.132 0.034h-27.424c-0.046 0.002-0.092-0.010-0.132-0.034-0.046-0.030-0.083-0.072-0.108-0.12-0.033-0.055-0.050-0.119-0.049-0.183s0.019-0.128 0.053-0.183l13.712-23.334c0.025-0.047 0.062-0.087 0.108-0.114zM17.964 3.132c-0.198-0.345-0.483-0.631-0.827-0.831s-0.735-0.304-1.133-0.304c-0.398 0-0.788 0.105-1.132 0.304s-0.63 0.486-0.828 0.831l-13.714 23.334c-0.914 1.556 0.182 3.534 1.96 3.534h27.426c1.778 0 2.876-1.98 1.96-3.534l-13.712-23.334z"></path>
<path d="M14.004 24c0-0.263 0.052-0.523 0.152-0.765s0.248-0.463 0.434-0.649 0.406-0.333 0.649-0.434c0.243-0.101 0.503-0.152 0.765-0.152s0.523 0.052 0.765 0.152 0.463 0.248 0.649 0.434c0.186 0.186 0.333 0.406 0.434 0.649s0.152 0.503 0.152 0.765c0 0.531-0.211 1.039-0.586 1.414s-0.884 0.586-1.414 0.586c-0.531 0-1.039-0.211-1.414-0.586s-0.586-0.884-0.586-1.414zM14.2 11.99c-0.027-0.252 0-0.507 0.078-0.749s0.206-0.463 0.376-0.652 0.377-0.339 0.609-0.443c0.232-0.103 0.483-0.157 0.736-0.157s0.505 0.053 0.736 0.157c0.232 0.103 0.439 0.254 0.609 0.443s0.298 0.411 0.376 0.652c0.078 0.241 0.105 0.496 0.078 0.749l-0.7 7.014c-0.024 0.276-0.15 0.532-0.353 0.719s-0.47 0.291-0.747 0.291c-0.277 0-0.543-0.104-0.747-0.291s-0.33-0.444-0.353-0.719l-0.7-7.014z"></path>
</svg>
