<!-- Generated by IcoMoon.io -->
<svg version="1.1" xmlns="http://www.w3.org/2000/svg" width="32" height="32" viewBox="0 0 32 32">
<path d="M16 32c1.061 0 2.078-0.421 2.828-1.172s1.172-1.768 1.172-2.828h-8c0 1.061 0.421 2.078 1.172 2.828s1.768 1.172 2.828 1.172zM16 3.836l-1.594 0.322c-1.808 0.368-3.433 1.35-4.601 2.779s-1.805 3.218-1.805 5.063c0 1.256-0.268 4.394-0.918 7.484-0.32 1.534-0.752 3.132-1.326 4.516h20.488c-0.574-1.384-1.004-2.98-1.326-4.516-0.65-3.090-0.918-6.228-0.918-7.484-0.001-1.845-0.639-3.633-1.806-5.062s-2.792-2.41-4.6-2.778l-1.594-0.324zM28.44 24c0.446 0.894 0.962 1.602 1.56 2h-28c0.598-0.398 1.114-1.106 1.56-2 1.8-3.6 2.44-10.24 2.44-12 0-4.84 3.44-8.88 8.010-9.802-0.028-0.278 0.003-0.559 0.090-0.824s0.229-0.51 0.417-0.717c0.188-0.207 0.416-0.373 0.672-0.486s0.532-0.172 0.811-0.172c0.279 0 0.556 0.059 0.811 0.172s0.484 0.279 0.672 0.486c0.187 0.207 0.329 0.452 0.417 0.717s0.118 0.546 0.090 0.824c2.261 0.46 4.293 1.687 5.753 3.473s2.257 4.022 2.257 6.329c0 1.76 0.64 8.4 2.44 12z"></path>
</svg>
